<svg xmlns="http://www.w3.org/2000/svg" width="800" height="800" fill="none" viewBox="0 0 960 960"><path fill="#fff" d="M599.256 326.893c38.951-1.898 44.943 61.923 2.197 56.33-35.456-.999-39.95-55.331-2.197-56.33Z"/><path fill="#000" d="M726.895 478.902c3.096-228.415-88.39-257.978-297.029-245.294-143.72-11.086-200.15 97.778-200.549 226.517-7.79 126.043 31.061 285.343 187.965 271.96 195.855-3.495 318.702-23.371 309.613-253.183ZM384.423 85.793C608.743 64.92 868.418 97.08 871.514 377.828c7.89 129.238 12.085 267.765-51.236 385.019-67.416 114.656-179.775 109.862-296.629 112.559-102.772 4.095-208.739 12.984-307.815-20.674C114.86 819.776 87.394 743.571 89.591 643.895c-3.495-85.792-6.99-171.385-5.493-257.278 4.994-203.546 93.883-305.518 300.325-300.824Z"/><path fill="#fff" d="M429.866 233.608c208.639-12.684 300.024 16.879 297.028 245.294 9.089 229.812-113.758 249.588-309.513 253.183-157.004 13.384-195.755-146.017-187.965-271.96.3-128.739 56.729-237.603 200.45-226.517Zm253.083 252.485c0-141.423-17.378-216.33-177.977-209.139-47.741 4.694-103.571-2.397-151.511 13.883-96.28 47.041-82.996 176.379-74.107 266.067 8.689 144.919 128.839 140.624 241.298 124.445 138.127-7.291 163.596-66.917 162.297-195.256Z"/><path fill="#fff" d="M495.188 393.309c-101.673-5.193-133.033 162.297-21.473 166.792 104.869-2.497 120.949-136.929 21.473-166.792Zm-21.273-38.452c175.58-11.885 164.794 247.591-.799 245.793-156.904-4.794-142.222-231.81.799-245.793Z"/><path fill="#000" d="M473.813 560.102c-111.561-4.594-80.3-172.085 21.473-166.792 99.376 29.863 83.296 164.295-21.473 166.792Z"/><path fill="#000" d="M504.973 276.955c160.599-7.291 178.077 67.715 177.977 209.138 1.199 128.34-24.169 187.965-162.297 195.256-112.459 16.18-232.609 20.474-241.298-124.444-8.889-89.788-22.073-219.027 74.107-266.068 47.94-16.279 103.771-9.188 151.511-13.882Zm-31.76 323.695c165.493 1.798 176.379-257.678.799-245.793-143.122 13.983-157.803 240.999-.799 245.793Zm128.239-217.428c42.747 5.593 36.754-58.128-2.197-56.33-37.753.999-33.258 55.331 2.197 56.33Z"/></svg>